<?xml version="1.0" standalone="no"?>
<!DOCTYPE svg PUBLIC "-//W3C//DTD SVG 20010904//EN"
 "http://www.w3.org/TR/2001/REC-SVG-20010904/DTD/svg10.dtd">
<svg version="1.0" xmlns="http://www.w3.org/2000/svg"
 width="400.000000pt" height="108.000000pt" viewBox="0 0 400.000000 108.000000"
 preserveAspectRatio="xMidYMid meet">

<g transform="translate(0.000000,108.000000) scale(0.100000,-0.100000)"
fill="#000000" stroke="none">
<path d="M1937 1073 c-4 -3 -7 -41 -7 -83 0 -77 0 -77 -25 -72 -24 4 -25 2
-25 -40 0 -24 -6 -50 -12 -56 -9 -9 -14 -65 -17 -188 -3 -173 -3 -175 -25
-172 -20 3 -21 8 -24 171 l-2 167 -755 0 -755 0 0 -170 0 -170 -25 0 -25 0 0
165 c0 144 -2 166 -16 172 -9 3 -24 2 -33 -4 -13 -9 -16 -36 -19 -172 l-2
-161 -55 0 -55 0 0 -64 c0 -96 31 -184 86 -245 l46 -51 -30 0 c-16 0 -35 7
-43 16 -21 26 -70 46 -95 40 -33 -9 -30 -23 4 -18 19 2 38 -5 66 -27 50 -40
88 -40 140 -1 49 37 63 37 112 0 50 -38 88 -38 138 0 50 38 73 38 116 0 46
-39 86 -39 135 0 48 38 72 38 120 0 48 -38 82 -38 130 0 48 38 72 38 120 0 49
-39 88 -39 139 0 49 37 63 37 114 0 53 -38 89 -38 137 0 48 38 72 38 120 0 48
-38 82 -38 130 0 48 38 72 38 120 0 48 -38 81 -38 131 0 49 37 72 37 119 0 22
-18 50 -30 66 -30 16 0 47 13 71 30 51 37 65 37 114 0 50 -38 88 -38 138 0 49
37 63 37 114 0 53 -38 89 -38 137 0 47 37 61 37 116 0 56 -38 87 -38 134 0 48
38 72 38 120 0 48 -38 81 -38 131 0 49 37 72 37 119 0 47 -37 87 -39 127 -5
48 41 73 42 123 6 54 -39 89 -39 139 -1 49 37 63 37 114 0 53 -38 122 -40 122
-4 0 11 -4 12 -19 4 -23 -12 -58 -13 -64 -2 -2 4 2 48 9 97 7 50 13 127 13
173 l1 82 -60 0 -60 0 0 170 0 170 -285 0 -285 0 0 -171 0 -170 -27 3 -28 3
-12 145 c-6 80 -12 162 -12 183 -1 36 -2 37 -40 37 -45 0 -41 13 -62 -227
l-12 -143 -29 0 -28 0 0 170 0 170 -470 0 -470 0 0 -170 0 -170 -29 0 -30 0
-5 173 c-13 408 -16 447 -35 447 -10 0 -21 -3 -24 -7z m20 -185 c-2 -35 -3 -9
-3 57 0 66 1 94 3 63 2 -32 2 -86 0 -120z m-50 -40 c-2 -13 -4 -5 -4 17 -1 22
1 32 4 23 2 -10 2 -28 0 -40z m63 -38 c0 -5 -21 -10 -46 -10 -27 0 -43 4 -39
10 3 6 24 10 46 10 21 0 39 -4 39 -10z m1182 -25 c4 -33 2 -35 -24 -35 -16 0
-28 5 -28 13 1 62 45 81 52 22z m-2672 -45 l0 -51 -82 3 -83 3 -3 48 -3 47 85
0 86 0 0 -50z m185 0 l0 -45 -82 -3 -83 -3 0 51 0 51 83 -3 82 -3 0 -45z m185
0 l0 -51 -82 3 -83 3 -3 33 c-6 58 -1 62 88 62 l80 0 0 -50z m190 0 l0 -51
-82 3 -83 3 -3 48 -3 47 85 0 86 0 0 -50z m188 3 l-3 -48 -82 -3 -83 -3 0 51
0 50 86 0 85 0 -3 -47z m182 -3 l0 -50 -80 0 -80 0 0 50 0 50 80 0 80 0 0 -50z
m190 0 l0 -51 -82 3 -83 3 -3 48 -3 47 85 0 86 0 0 -50z m180 0 l0 -50 -80 0
-80 0 0 50 0 50 80 0 80 0 0 -50z m470 0 l0 -51 -82 3 -83 3 -3 33 c-6 58 -1
62 88 62 l80 0 0 -50z m185 0 l0 -45 -82 -3 -83 -3 0 51 0 51 83 -3 82 -3 0
-45z m175 0 l0 -51 -77 3 -78 3 -3 48 -3 47 80 0 81 0 0 -50z m185 0 l0 -45
-82 -3 -83 -3 0 51 0 51 83 -3 82 -3 0 -45z m185 0 l0 -51 -82 3 -83 3 -3 33
c-6 58 -1 62 88 62 l80 0 0 -50z m450 0 l0 -50 -80 0 -80 0 0 50 0 50 80 0 80
0 0 -50z m188 3 l-3 -48 -82 -3 -83 -3 0 51 0 50 86 0 85 0 -3 -47z m182 -3
l0 -51 -82 3 -83 3 -3 33 c-6 58 -1 62 88 62 l80 0 0 -50z m-3580 -115 c0
-131 -2 -155 -15 -155 -13 0 -15 23 -15 148 0 82 3 152 7 155 19 20 23 -6 23
-148z m1760 0 l0 -155 -55 0 -55 0 0 148 c0 82 3 152 7 155 3 4 28 7 55 7 l48
0 0 -155z m1180 66 c0 -21 3 -59 6 -85 l7 -46 -46 0 c-45 0 -46 1 -42 28 2 15
7 53 10 85 6 55 7 57 36 57 27 0 29 -3 29 -39z m-2680 -66 l0 -45 -85 0 -85 0
0 45 0 45 85 0 85 0 0 -45z m188 3 l-3 -43 -82 -3 -83 -3 0 46 0 45 86 0 85 0
-3 -42z m182 -3 l0 -45 -85 0 -85 0 0 45 0 45 85 0 85 0 0 -45z m190 0 l0 -45
-85 0 -85 0 0 45 0 45 85 0 85 0 0 -45z m190 0 l0 -45 -85 0 -85 0 0 45 0 45
85 0 85 0 0 -45z m180 0 l0 -45 -80 0 -80 0 0 45 0 45 80 0 80 0 0 -45z m190
0 l0 -45 -85 0 -85 0 0 45 0 45 85 0 85 0 0 -45z m180 0 l0 -45 -80 0 -80 0 0
45 0 45 80 0 80 0 0 -45z m470 0 l0 -45 -85 0 -85 0 0 45 0 45 85 0 85 0 0
-45z m190 0 l0 -45 -85 0 -85 0 0 45 0 45 85 0 85 0 0 -45z m170 0 l0 -45 -80
0 -80 0 0 45 0 45 80 0 80 0 0 -45z m190 0 l0 -45 -85 0 -85 0 0 45 0 45 85 0
85 0 0 -45z m180 0 l0 -45 -85 0 -85 0 0 45 0 45 85 0 85 0 0 -45z m450 0 l0
-45 -80 0 -80 0 0 45 0 45 80 0 80 0 0 -45z m190 0 l0 -45 -85 0 -85 0 0 45 0
45 85 0 85 0 0 -45z m180 0 l0 -45 -85 0 -85 0 0 45 0 45 85 0 85 0 0 -45z
m-3320 -110 l0 -45 -85 0 -85 0 0 45 0 45 85 0 85 0 0 -45z m188 -2 l3 -43
-85 0 -86 0 0 45 0 46 83 -3 82 -3 3 -42z m182 2 l0 -45 -85 0 -85 0 0 45 0
45 85 0 85 0 0 -45z m190 0 l0 -45 -85 0 -85 0 0 45 0 45 85 0 85 0 0 -45z
m190 0 l0 -45 -85 0 -85 0 0 45 0 45 85 0 85 0 0 -45z m180 0 l0 -45 -80 0
-80 0 0 45 0 45 80 0 80 0 0 -45z m190 0 l0 -45 -85 0 -85 0 0 45 0 45 85 0
85 0 0 -45z m180 0 l0 -45 -80 0 -80 0 0 45 0 45 80 0 80 0 0 -45z m470 0 l0
-45 -85 0 -85 0 0 45 0 45 85 0 85 0 0 -45z m190 0 l0 -45 -85 0 -85 0 0 45 0
45 85 0 85 0 0 -45z m170 0 l0 -45 -80 0 -80 0 0 45 0 45 80 0 80 0 0 -45z
m190 0 l0 -45 -85 0 -85 0 0 45 0 45 85 0 85 0 0 -45z m180 0 l0 -45 -85 0
-85 0 0 45 0 45 85 0 85 0 0 -45z m450 0 l0 -45 -80 0 -80 0 0 45 0 45 80 0
80 0 0 -45z m190 0 l0 -45 -85 0 -85 0 0 45 0 45 85 0 85 0 0 -45z m180 0 l0
-45 -85 0 -85 0 0 45 0 45 85 0 85 0 0 -45z m-630 -10 c0 -35 0 -35 -45 -35
-45 0 -45 0 -45 35 0 35 0 35 45 35 45 0 45 0 45 -35z m749 -162 c-7 -103 -19
-213 -24 -213 -1 0 -19 7 -38 15 -41 17 -62 11 -116 -29 -43 -32 -49 -32 -92
0 -67 51 -101 49 -170 -7 -31 -25 -54 -20 -100 18 -38 32 -80 34 -117 5 -58
-47 -86 -47 -137 -1 -38 34 -66 32 -125 -6 -58 -37 -78 -38 -115 -5 -50 46
-85 45 -154 -5 -37 -27 -61 -26 -96 5 -50 46 -89 45 -154 -4 -43 -32 -49 -32
-92 0 -67 51 -101 49 -170 -7 -31 -25 -54 -20 -100 18 -38 32 -80 34 -117 5
-58 -47 -86 -47 -137 -1 -35 31 -67 33 -105 5 -72 -53 -88 -53 -160 0 -38 28
-70 26 -105 -5 -51 -46 -79 -46 -137 1 -15 12 -41 21 -58 21 -17 0 -43 -9 -58
-21 -58 -47 -86 -47 -137 -1 -35 31 -67 33 -105 5 -72 -53 -88 -53 -160 0 -38
28 -70 26 -105 -5 -51 -46 -79 -46 -137 1 -38 30 -78 27 -129 -10 -52 -38 -59
-39 -97 -7 -51 43 -79 48 -125 25 l-40 -21 -38 37 c-21 20 -47 58 -58 84 -17
40 -41 148 -41 188 0 9 392 12 1928 12 l1927 0 -6 -97z"/>
<path d="M3350 330 c0 -6 54 -10 141 -10 91 0 138 4 134 10 -4 6 -62 10 -141
10 -83 0 -134 -4 -134 -10z"/>
<path d="M533 323 c185 -2 489 -2 675 0 185 1 33 2 -338 2 -371 0 -523 -1
-337 -2z"/>
<path d="M2633 323 c103 -2 271 -2 375 0 103 1 18 2 -188 2 -206 0 -291 -1
-187 -2z"/>
<path d="M394 256 c-12 -31 0 -51 31 -51 27 0 30 3 30 30 0 25 -4 30 -28 33
-17 2 -29 -2 -33 -12z m56 -21 c0 -18 -27 -26 -39 -11 -7 9 -7 16 0 23 14 14
39 6 39 -12z"/>
<path d="M524 256 c-12 -31 0 -51 31 -51 27 0 30 3 30 30 0 25 -4 30 -28 33
-17 2 -29 -2 -33 -12z m42 -31 c-5 -14 -9 -15 -21 -5 -12 10 -13 16 -4 27 15
18 34 1 25 -22z"/>
</g>
</svg>
